<svg width="22" height="22" viewBox="0 0 22 22" fill="none" xmlns="http://www.w3.org/2000/svg">
<g clip-path="url(#clip0_388_1992)">
<path d="M8.59375 17.875C8.59375 16.5461 9.67106 15.4688 11 15.4688C12.3289 15.4688 13.4062 16.5461 13.4062 17.875C13.4062 19.2039 12.3289 20.2812 11 20.2812C9.67106 20.2812 8.59375 19.2039 8.59375 17.875Z" fill="#E1E1E1"/>
<path d="M8.59375 10.6562C8.59375 9.32731 9.67106 8.25 11 8.25C12.3289 8.25 13.4062 9.32731 13.4062 10.6562C13.4062 11.9852 12.3289 13.0625 11 13.0625C9.67106 13.0625 8.59375 11.9852 8.59375 10.6562Z" fill="#E1E1E1"/>
<path d="M8.59375 3.4375C8.59375 2.10856 9.67106 1.03125 11 1.03125C12.3289 1.03125 13.4062 2.10856 13.4062 3.4375C13.4062 4.76644 12.3289 5.84375 11 5.84375C9.67106 5.84375 8.59375 4.76644 8.59375 3.4375Z" fill="#E1E1E1"/>
</g>
<defs>
<clipPath id="clip0_388_1992">
<rect width="22" height="22" fill="white" transform="matrix(1 0 0 -1 0 22)"/>
</clipPath>
</defs>
</svg>
